<?xml version="1.0" encoding="utf-8"?>
<!-- Generator: Adobe Illustrator 27.5.0, SVG Export Plug-In . SVG Version: 6.00 Build 0)  -->
<svg version="1.1" xmlns="http://www.w3.org/2000/svg" xmlns:xlink="http://www.w3.org/1999/xlink" x="0px" y="0px"
	 viewBox="0 0 500 500" style="enable-background:new 0 0 500 500;" xml:space="preserve">
<path style="fill:#E0F6FC;" d="M290.302,260.818c-1.72-0.191-3.458-0.317-5.225-0.317h-9.479h-3.15h-13.47l0.131,0.132
	l-6.308,28.296h-0.266l6.31-28.296l-0.13-0.132h-14.388v-10.892c6.985-1.628,13.389-4.754,18.861-9.027h27.475V192.85h-0.364
	c1.44-2.83,2.306-6.006,2.306-8.503c0-2.688-1.004-5.136-2.65-7.009c0.01,0.008,0.019,0.016,0.027,0.025
	c1.759,1.76,2.186-7.953,2.136-18.938c2.832,0.094,5.737-0.117,8.704-0.739l-8.757-4.327c-0.09-5.645-0.269-11.217-0.426-15.392
	c0.356,0.197,0.727,0.395,1.075,0.591l6.44-37.35c0,0-27.103-33.249-67.658-33.249c-37.613,0-66.488,34.093-66.488,34.093
	l7.621,31.861c-0.162,11.323-0.402,44.463,2.338,45.674c-0.72,1.434-1.136,3.047-1.136,4.76c0,2.497,0.867,5.673,2.309,8.503h-0.001
	v47.732h27.112c5.335,4.166,11.555,7.246,18.337,8.906v11.014h-16.31l0.036,0.133c-1.786,0.018-28.647,0.289-29.204,0.341
	c-22.604,2.289-40.228,20.778-40.228,43.264v35.94h89.575h7.62h6.895h90.057v-36.176
	C330.029,281.693,312.661,263.326,290.302,260.818z M184.463,165.543v8.173c-0.39,0-0.775,0.024-1.154,0.065v-8.191
	C183.695,165.59,184.078,165.559,184.463,165.543z M281.975,173.716c0,0,0.281-0.01,0.762,0.038
	C282.483,173.736,282.231,173.716,281.975,173.716z M232.797,339.791l-0.053-0.071l0.499,0.426L232.797,339.791z"/>
<g>
	<path style="fill:#636363;" d="M186.563,425.943l-2.681,13.489c1.381-0.18,2.362-0.27,2.941-0.27c0.94,0,1.411,0.654,1.411,1.965
		c-0.528-0.182-1.085-0.273-1.671-0.273c-0.564,0-1.256,0.055-2.073,0.163l-2.474,0.326c-0.883,0.123-1.501,0.184-1.856,0.184
		c-0.608,0-1.038-0.145-1.291-0.434c-0.254-0.289-0.405-0.817-0.456-1.584c0.514,0.281,1.048,0.423,1.605,0.423
		c0.304,0,0.811-0.055,1.52-0.163l2.691-13.501c-0.781,0.13-1.458,0.195-2.029,0.195c-0.999,0-1.498-0.586-1.498-1.759
		c0.282,0.189,0.637,0.283,1.064,0.283c0.521,0,1.281-0.094,2.279-0.283l1.715-0.325c1.193-0.217,2.105-0.325,2.735-0.325
		c0.977,0,1.541,0.654,1.693,1.964c-0.406-0.195-0.829-0.293-1.27-0.293c-0.557,0-1.183,0.051-1.878,0.152
		C186.933,425.899,186.773,425.921,186.563,425.943z"/>
	<path style="fill:#636363;" d="M203.592,432.01c-1.498,2.844-3.002,5.074-4.515,6.69c-1.512,1.617-2.851,2.427-4.016,2.427
		c-0.846,0-1.53-0.327-2.051-0.983c-0.52-0.654-0.781-1.51-0.781-2.566c0-0.593,0.109-1.433,0.326-2.517l2.16-10.875
		c-0.283,0.043-0.529,0.065-0.738,0.065c-1.665,0-2.496-0.694-2.496-2.084v-0.25c0.869,0.492,1.849,0.738,2.941,0.738
		c1.093,0,2.048-0.271,2.865-0.814l-2.518,13.056c-0.224,1.173-0.337,1.979-0.337,2.421c0,1.223,0.449,1.834,1.346,1.834
		c0.868,0,1.742-0.49,2.621-1.471c0.879-0.98,2.321-3.07,4.325-6.268L203.592,432.01z"/>
	<path style="fill:#636363;" d="M212.622,432.01c-1.498,2.844-3.002,5.074-4.515,6.69c-1.512,1.617-2.851,2.427-4.016,2.427
		c-0.846,0-1.53-0.327-2.051-0.983c-0.52-0.654-0.782-1.51-0.782-2.566c0-0.593,0.109-1.433,0.326-2.517l2.16-10.875
		c-0.283,0.043-0.528,0.065-0.738,0.065c-1.665,0-2.496-0.694-2.496-2.084v-0.25c0.869,0.492,1.849,0.738,2.941,0.738
		c1.093,0,2.048-0.271,2.865-0.814l-2.518,13.056c-0.224,1.173-0.337,1.979-0.337,2.421c0,1.223,0.449,1.834,1.346,1.834
		c0.868,0,1.742-0.49,2.621-1.471c0.879-0.98,2.321-3.07,4.325-6.268L212.622,432.01z"/>
	<path style="fill:#636363;" d="M219.448,434.168c-0.999,2.063-2.113,3.738-3.343,5.026c-1.23,1.288-2.333,1.933-3.31,1.933
		c-0.789,0-1.43-0.279-1.921-0.835c-0.492-0.558-0.738-1.28-0.738-2.17c0-1.143,0.384-3.239,1.15-6.29
		c0.21-0.824,0.315-1.344,0.315-1.56c0-0.218-0.069-0.452-0.206-0.705l1.497-0.011c0.645,0,0.966,0.249,0.966,0.747
		c0,0.311-0.21,1.201-0.629,2.676c-0.13,0.44-0.213,0.743-0.249,0.909l-0.163,0.661c-0.319,1.32-0.477,2.328-0.477,3.022
		c0,1.068,0.369,1.603,1.107,1.603c1.208,0,2.742-1.495,4.602-4.484c1.519-2.433,2.279-4.165,2.279-5.197
		c0-0.146-0.043-0.29-0.13-0.435c0.594-0.166,1.096-0.249,1.509-0.249c0.636,0,0.955,0.195,0.955,0.585
		c0,0.094-0.029,0.231-0.087,0.412c-0.028,0.108-0.097,0.372-0.207,0.79c-0.014,0.079-0.086,0.372-0.216,0.877
		c-0.094,0.354-0.163,0.636-0.207,0.845l-0.108,0.52c-0.239,1.192-0.358,2.308-0.358,3.347c0,1.589,0.384,2.383,1.151,2.383
		c1.693,0,3.841-2.383,6.446-7.147l0.912,0.541c-2.967,5.706-5.679,8.56-8.139,8.56c-1.658,0-2.486-1.437-2.486-4.31
		C219.361,435.666,219.391,434.986,219.448,434.168z"/>
	<path style="fill:#636363;" d="M233.427,437.034c0.246,0.551,0.369,1.075,0.369,1.574c0,1.106-0.462,2.071-1.389,2.893
		c-0.926,0.821-2.012,1.231-3.255,1.231c-0.731,0-1.353-0.188-1.867-0.564c-0.515-0.376-0.771-0.828-0.771-1.357
		c0-0.564,0.354-1.136,1.059-1.715c0.706-0.578,1.887-1.266,3.543-2.063l-0.868-1.399c-1.057-1.701-1.585-3.028-1.585-3.983
		c0-1.374,0.799-2.482,2.399-3.321c0.983,0.377,1.476,0.852,1.476,1.422c0,0.81-0.626,1.589-1.877,2.334l1.237,2.278l0.966,1.759
		c1.382-0.825,2.424-1.532,3.126-2.122c0.702-0.589,1.588-1.499,2.659-2.729l0.868,0.532
		C237.96,433.887,235.93,435.631,233.427,437.034z M231.582,438.012c-2.127,1.143-3.19,2.029-3.19,2.658
		c0,0.594,0.43,0.891,1.291,0.891c0.637,0,1.154-0.216,1.553-0.646c0.397-0.43,0.597-0.985,0.597-1.666
		C231.832,438.844,231.749,438.431,231.582,438.012z"/>
	<path style="fill:#636363;" d="M239.157,440.779c-0.494,0.231-0.891,0.348-1.188,0.348c-0.741,0-1.112-0.326-1.112-0.978
		c0-0.333,0.13-1.161,0.39-2.485l0.543-2.702c0.333-1.606,0.5-2.796,0.5-3.571c0-0.419-0.119-0.771-0.358-1.052
		c0.759-0.262,1.378-0.392,1.855-0.392c0.507,0,0.76,0.322,0.76,0.966c0,0.398-0.179,1.444-0.539,3.137l-0.614,3.158
		c1.366-2.654,2.741-4.719,4.126-6.191c1.384-1.472,2.64-2.209,3.768-2.209c0.397,0,0.74,0.114,1.03,0.343
		c0.289,0.228,0.434,0.504,0.434,0.83c0,0.507-0.551,1.179-1.65,2.018c-0.275-0.572-0.665-0.857-1.171-0.857
		c-0.918,0-2.088,0.978-3.512,2.93c-0.881,1.216-1.647,2.47-2.297,3.761c-0.65,1.292-0.976,2.213-0.976,2.763L239.157,440.779z"/>
	<path style="fill:#636363;" d="M257.847,434.224c-0.928,1.918-2.07,3.548-3.428,4.89c-1.359,1.342-2.541,2.014-3.548,2.014
		c-0.768,0-1.382-0.343-1.842-1.025c-0.46-0.685-0.69-1.594-0.69-2.73c0-2.265,0.686-4.258,2.059-5.98
		c1.373-1.722,2.961-2.583,4.764-2.583c1.094,0,2.278,0.341,3.553,1.021c0.189-0.673,0.955-1.01,2.301-1.01
		c0.087,0,0.228,0.005,0.423,0.011c-0.412,0.63-0.727,1.491-0.944,2.584l-0.184,0.922c-0.211,1.027-0.314,2.23-0.314,3.604
		c0,1.584,0.368,2.377,1.106,2.377c0.782,0,1.851-0.653,3.207-1.959c1.356-1.306,2.69-2.969,3.999-4.987l0.848,0.587
		c-1.339,2.387-2.87,4.378-4.591,5.974c-1.723,1.596-3.202,2.394-4.439,2.394c-1.563,0-2.344-1.303-2.344-3.907
		C257.782,435.874,257.803,435.143,257.847,434.224z M258.356,431.63c-1.521-0.991-2.786-1.487-3.792-1.487
		c-1.095,0-2.04,0.664-2.837,1.992c-0.798,1.327-1.196,2.903-1.196,4.727c0,1.461,0.479,2.192,1.436,2.192
		c1.035,0,3.017-2.272,5.944-6.815C257.947,432.18,258.096,431.977,258.356,431.63z"/>
	<path style="fill:#636363;" d="M274.354,436.557c0.194,0.355,0.293,0.667,0.293,0.935c0,0.709-0.6,1.492-1.796,2.349
		c-1.198,0.858-2.289,1.287-3.272,1.287c-0.869,0-1.576-0.388-2.122-1.162c-0.546-0.773-0.82-1.772-0.82-2.995
		c0-1.36,0.358-3.296,1.075-5.807l0.499-1.823h-1.834c-0.767,0-1.378,0.108-1.834,0.325c0.419-0.762,0.767-1.24,1.042-1.434
		c0.275-0.194,0.741-0.292,1.399-0.292h1.64l0.216-0.751c0.334-1.117,0.732-1.885,1.194-2.302c0.463-0.417,1.158-0.626,2.084-0.626
		c0.108,0,0.282,0.007,0.521,0.021c-0.564,0.726-1.149,1.944-1.758,3.657h5.73c1.006,0,1.772-0.131,2.301-0.392
		c-0.181,0.741-0.422,1.225-0.722,1.452s-0.859,0.34-1.677,0.34h-6.1c-0.072,0.239-0.126,0.416-0.163,0.532
		c-0.875,2.981-1.313,5.231-1.313,6.75c0,1.679,0.603,2.518,1.813,2.518c0.622,0,1.301-0.264,2.035-0.793
		C273.521,437.82,274.043,437.224,274.354,436.557z"/>
	<path style="fill:#636363;" d="M288.768,431.974c-1.636,2.866-3.289,5.108-4.96,6.726c-1.671,1.618-3.173,2.428-4.504,2.428
		c-0.81,0-1.464-0.265-1.96-0.793c-0.495-0.528-0.742-1.224-0.742-2.084c0-0.326,0.072-0.844,0.216-1.553l0.239-1.194
		c0.355-1.723,0.531-2.931,0.531-3.626c0-0.412-0.122-0.749-0.368-1.009c0.94-0.218,1.53-0.325,1.769-0.325
		c0.535,0,0.803,0.376,0.803,1.127c0,0.557-0.104,1.355-0.314,2.397l-0.423,2.114c-0.21,1.018-0.314,1.681-0.314,1.984
		c0,0.896,0.38,1.345,1.14,1.345c0.903,0,2.108-0.762,3.613-2.282c1.505-1.521,2.963-3.45,4.374-5.785L288.768,431.974z
		 M279.108,426.509l0.151,0.011c0.484-0.022,1.182-0.266,2.089-0.732c0.908-0.468,1.619-0.943,2.133-1.429
		c-0.317,0.998-0.883,1.834-1.692,2.507c-1.23,1.027-2.063,1.541-2.496,1.541c-0.29,0-0.435-0.177-0.435-0.531
		C278.858,427.369,278.941,426.914,279.108,426.509z"/>
	<path style="fill:#636363;" d="M297.385,432.856c0.021,0.174,0.032,0.329,0.032,0.467c0,2.091-0.709,3.914-2.127,5.47
		c-1.419,1.556-3.079,2.334-4.981,2.334c-1.455,0-2.64-0.465-3.555-1.396c-0.915-0.93-1.373-2.136-1.373-3.619
		c0-1.686,0.592-3.147,1.774-4.385c1.184-1.237,2.577-1.855,4.184-1.855c0.246,0,0.507,0.032,0.781,0.097
		c-0.18-0.325-0.271-0.6-0.271-0.824c0-0.347,0.119-0.68,0.358-0.998c1.765,0.144,3.233,1.049,4.406,2.713
		c1.201,0.817,2.452,1.227,3.755,1.227c0.847,0,1.762-0.286,2.746-0.857l0.542,0.922c-1.149,0.804-2.33,1.205-3.537,1.205
		C299.316,433.355,298.405,433.189,297.385,432.856z M294.921,431.934c-0.601-0.181-1.154-0.471-1.661-0.868
		c-0.369-0.078-0.676-0.118-0.922-0.119c-1.23,0.001-2.32,0.555-3.271,1.661c-0.951,1.107-1.427,2.369-1.428,3.786
		c0.001,1.028,0.289,1.873,0.863,2.534c0.574,0.661,1.313,0.993,2.219,0.994c1.223-0.001,2.275-0.618,3.157-1.852
		c0.882-1.233,1.323-2.703,1.325-4.411C295.201,433.066,295.107,432.491,294.921,431.934z"/>
	<path style="fill:#636363;" d="M304.255,436.959c2.568-5.434,4.876-8.151,6.924-8.151c1.599,0,2.399,1.592,2.399,4.775l0.021,1.314
		c0,1.519,0.077,2.571,0.233,3.152c0.155,0.584,0.438,0.874,0.852,0.874c0.622,0,1.329-0.495,2.122-1.486
		c0.792-0.991,2.081-2.984,3.869-5.98l0.911,0.531c-1.592,3.003-3.018,5.232-4.276,6.686c-1.259,1.454-2.388,2.181-3.386,2.181
		c-0.919,0-1.565-0.444-1.938-1.334c-0.373-0.891-0.559-2.432-0.559-4.624l-0.012-0.933c0-1.188-0.075-2.021-0.228-2.502
		c-0.151-0.481-0.416-0.723-0.792-0.723c-0.955,0-2.492,1.907-4.612,5.72c-0.521,0.934-0.857,1.535-1.01,1.803
		c-0.557,0.969-0.835,1.671-0.835,2.105c0,0.174,0.047,0.341,0.141,0.499c-0.42,0.174-0.775,0.262-1.064,0.262
		c-0.73,0-1.096-0.405-1.096-1.217c0-0.231,0.093-1.272,0.282-3.125l0.238-2.355c0.108-0.998,0.162-1.772,0.162-2.322
		c0-0.767-0.174-1.371-0.52-1.813c0.152-0.051,0.405-0.138,0.76-0.26c0.448-0.16,0.807-0.239,1.074-0.239
		c0.564,0,0.848,0.412,0.848,1.236c0,0.436-0.055,1.181-0.163,2.236c-0.022,0.231-0.044,0.452-0.065,0.662L304.255,436.959z"/>
</g>
<line style="fill:#FCEAC3;stroke:#F4D790;stroke-width:3;stroke-linecap:round;stroke-linejoin:round;stroke-miterlimit:10;" x1="181.135" y1="412.58" x2="315.543" y2="412.58"/>
<g>
	
		<line style="fill:none;stroke:#575756;stroke-width:3;stroke-linecap:round;stroke-linejoin:round;stroke-miterlimit:10;" x1="110.845" y1="266.804" x2="102.847" y2="274.801"/>
	
		<line style="fill:none;stroke:#575756;stroke-width:3;stroke-linecap:round;stroke-linejoin:round;stroke-miterlimit:10;" x1="110.845" y1="274.801" x2="102.847" y2="266.803"/>
</g>
<g>
	
		<line style="fill:none;stroke:#575756;stroke-width:3;stroke-linecap:round;stroke-linejoin:round;stroke-miterlimit:10;" x1="384.333" y1="252.804" x2="376.335" y2="260.802"/>
	
		<line style="fill:none;stroke:#575756;stroke-width:3;stroke-linecap:round;stroke-linejoin:round;stroke-miterlimit:10;" x1="384.333" y1="260.802" x2="376.335" y2="252.804"/>
</g>
<g>
	
		<line style="fill:none;stroke:#575756;stroke-width:3;stroke-linecap:round;stroke-linejoin:round;stroke-miterlimit:10;" x1="185.134" y1="48.996" x2="177.136" y2="56.994"/>
	
		<line style="fill:none;stroke:#575756;stroke-width:3;stroke-linecap:round;stroke-linejoin:round;stroke-miterlimit:10;" x1="185.134" y1="56.994" x2="177.136" y2="48.996"/>
</g>
<path style="fill:#EFB9B9;stroke:#EA9B9B;stroke-width:3;stroke-linecap:round;stroke-linejoin:round;stroke-miterlimit:10;" d="
	M398.581,158.018c0,14.723-11.936,26.657-26.656,26.657c-14.723,0-26.658-11.935-26.658-26.657
	c0-14.723,11.935-26.657,26.658-26.657C386.645,131.36,398.581,143.295,398.581,158.018z"/>
<circle style="fill:#C3ECFC;stroke:#90CEF4;stroke-width:3;stroke-linecap:round;stroke-linejoin:round;stroke-miterlimit:10;" cx="120.857" cy="98.521" r="26.657"/>
<polygon style="fill:#FCEAC3;stroke:#F4D790;stroke-width:3;stroke-linecap:round;stroke-linejoin:round;stroke-miterlimit:10;" points="
	369.847,65.03 369.505,71.963 375.025,76.178 368.326,78.001 366.023,84.549 362.219,78.738 355.277,78.571 359.629,73.162 
	357.646,66.509 364.137,68.978 "/>
<path style="fill:none;stroke:#575756;stroke-width:3;stroke-linecap:round;stroke-linejoin:round;stroke-miterlimit:10;stroke-dasharray:9.4,9.4;" d="
	M371.784,192.878c0,0,4.939,43.925-43.923,43.925"/>
<path style="fill:none;stroke:#575756;stroke-width:3;stroke-linecap:round;stroke-linejoin:round;stroke-miterlimit:10;stroke-dasharray:9.4,9.4;" d="
	M120.994,146.943c0,0,2.516,24.057,40.154,29.471"/>
<g>
	<path style="fill:none;stroke:#575756;stroke-width:3;stroke-linecap:round;stroke-linejoin:round;stroke-miterlimit:10;" d="
		M358.461,92.91c0,0-16.27,18.432-33.701,5.565"/>
	<path style="fill:none;stroke:#575756;stroke-width:3;stroke-linecap:round;stroke-linejoin:round;stroke-miterlimit:10;" d="
		M351.184,80.436c0,0-7.49,16.091-21.108,12.768"/>
</g>
<circle style="fill:none;stroke:#575756;stroke-width:3;stroke-linecap:round;stroke-linejoin:round;stroke-miterlimit:10;" cx="364.424" cy="280.732" r="7.5"/>
<path style="fill:none;stroke:#575756;stroke-width:3;stroke-linecap:round;stroke-linejoin:round;stroke-miterlimit:10;" d="
	M161.148,67.959c0,1.916-1.553,3.469-3.469,3.469c-1.915,0-3.468-1.553-3.468-3.469c0-1.916,1.553-3.469,3.468-3.469
	C159.596,64.49,161.148,66.043,161.148,67.959z"/>
<path style="fill:none;stroke:#575756;stroke-width:3;stroke-linecap:round;stroke-linejoin:round;stroke-miterlimit:10;" d="
	M383.803,103.038c0,1.916-1.553,3.469-3.469,3.469c-1.916,0-3.469-1.553-3.469-3.469s1.553-3.469,3.469-3.469
	C382.25,99.569,383.803,101.122,383.803,103.038z"/>
<g>
	
		<rect x="114.967" y="200.999" style="fill:none;stroke:#575756;stroke-width:3;stroke-linecap:round;stroke-linejoin:round;stroke-miterlimit:10;" width="31.268" height="43.605"/>
	
		<line style="fill:none;stroke:#575756;stroke-width:3;stroke-linecap:round;stroke-linejoin:round;stroke-miterlimit:10;" x1="120.114" y1="215.443" x2="141.456" y2="215.443"/>
	
		<line style="fill:none;stroke:#575756;stroke-width:3;stroke-linecap:round;stroke-linejoin:round;stroke-miterlimit:10;" x1="120.114" y1="221.873" x2="141.456" y2="221.873"/>
	
		<line style="fill:none;stroke:#575756;stroke-width:3;stroke-linecap:round;stroke-linejoin:round;stroke-miterlimit:10;" x1="120.114" y1="228.301" x2="141.456" y2="228.301"/>
	
		<line style="fill:none;stroke:#575756;stroke-width:3;stroke-linecap:round;stroke-linejoin:round;stroke-miterlimit:10;" x1="120.114" y1="234.73" x2="141.456" y2="234.73"/>
	
		<line style="fill:none;stroke:#575756;stroke-width:3;stroke-linecap:round;stroke-linejoin:round;stroke-miterlimit:10;" x1="120.885" y1="197.856" x2="120.885" y2="203.257"/>
	
		<line style="fill:none;stroke:#575756;stroke-width:3;stroke-linecap:round;stroke-linejoin:round;stroke-miterlimit:10;" x1="139.786" y1="197.856" x2="139.786" y2="203.257"/>
	
		<line style="fill:none;stroke:#575756;stroke-width:3;stroke-linecap:round;stroke-linejoin:round;stroke-miterlimit:10;" x1="130.786" y1="197.856" x2="130.786" y2="203.257"/>
</g>
<g>
	<g>
		
			<polygon style="fill:#C49C86;stroke:#636363;stroke-width:3;stroke-linecap:round;stroke-linejoin:round;stroke-miterlimit:10;" points="
			233.742,293.691 269.737,293.691 275.46,268.023 275.342,267.904 226.87,267.904 226.87,267.904 		"/>
		
			<rect x="200.438" y="206.539" style="fill:#838A9D;stroke:#636363;stroke-width:3;stroke-linecap:round;stroke-linejoin:round;stroke-miterlimit:10;" width="103.882" height="43.297"/>
		<rect x="241.664" y="252.238" style="fill:#C49C86;" width="20.627" height="30.868"/>
		<g>
			<g>
				<g>
					
						<line style="fill:#FAF0ED;stroke:#636363;stroke-width:3;stroke-linecap:round;stroke-linejoin:round;stroke-miterlimit:10;" x1="241.664" y1="252.238" x2="241.664" y2="283.106"/>
					
						<line style="fill:#FAF0ED;stroke:#636363;stroke-width:3;stroke-linecap:round;stroke-linejoin:round;stroke-miterlimit:10;" x1="262.291" y1="252.238" x2="262.291" y2="283.106"/>
				</g>
			</g>
		</g>
		<g>
			<path style="fill:#C49C86;stroke:#636363;stroke-width:3;stroke-linecap:round;stroke-linejoin:round;stroke-miterlimit:10;" d="
				M296.439,189.184v23.716c5.332,0,9.643-8.75,9.643-14.073C306.082,193.503,301.771,189.184,296.439,189.184z"/>
			<path style="fill:#C49C86;stroke:#636363;stroke-width:3;stroke-linecap:round;stroke-linejoin:round;stroke-miterlimit:10;" d="
				M198.345,198.827c0,5.323,4.317,14.073,9.644,14.073v-23.716C202.662,189.184,198.345,193.503,198.345,198.827z"/>
			<path style="fill:#C49C86;stroke:#636363;stroke-width:3;stroke-linecap:round;stroke-linejoin:round;stroke-miterlimit:10;" d="
				M252.217,111.114c-24.429,0-44.228,19.803-44.228,44.232v33.837v23.716v2.063c0,24.424,19.799,44.23,44.228,44.23
				c24.427,0,44.223-19.805,44.223-44.23v-2.063v-23.716v-33.837C296.439,130.917,276.644,111.114,252.217,111.114z"/>
		</g>
		<path style="fill:none;stroke:#636363;stroke-width:3;stroke-linecap:round;stroke-linejoin:round;stroke-miterlimit:10;" d="
			M252.849,223.419c-3.364,0-6.096-2.725-6.096-6.093c0-3.367,2.731-6.095,6.096-6.095"/>
		<g>
			
				<line style="fill:none;stroke:#636363;stroke-width:3;stroke-linecap:round;stroke-linejoin:round;stroke-miterlimit:10;" x1="270.26" y1="185.124" x2="279.891" y2="188.807"/>
			<path style="fill:none;stroke:#636363;stroke-width:3;stroke-linecap:round;stroke-linejoin:round;stroke-miterlimit:10;" d="
				M274.546,199.893c0,1.842-1.498,3.337-3.338,3.337c-1.844,0-3.34-1.496-3.34-3.337c0-1.844,1.496-3.341,3.34-3.341
				C273.048,196.551,274.546,198.048,274.546,199.893z"/>
		</g>
		<g>
			
				<line style="fill:none;stroke:#636363;stroke-width:3;stroke-linecap:round;stroke-linejoin:round;stroke-miterlimit:10;" x1="222.012" y1="189.1" x2="231.566" y2="185.22"/>
			<path style="fill:none;stroke:#636363;stroke-width:3;stroke-linecap:round;stroke-linejoin:round;stroke-miterlimit:10;" d="
				M235.367,199.893c0,1.842-1.495,3.337-3.339,3.337c-1.845,0-3.34-1.496-3.34-3.337c0-1.844,1.496-3.341,3.34-3.341
				C233.872,196.551,235.367,198.048,235.367,199.893z"/>
		</g>
		<path style="fill:none;stroke:#636363;stroke-width:3;stroke-linecap:round;stroke-linejoin:round;stroke-miterlimit:10;" d="
			M234.331,237.534c0,0,4.02,2.217,9.774,2.217c4.743,0,9.807,0,14.553,0c6.934,0,10.967-2.217,10.967-2.217"/>
		<path style="fill:#838A9D;stroke:#636363;stroke-width:3;stroke-linecap:round;stroke-linejoin:round;stroke-miterlimit:10;" d="
			M250.893,150.401c0,0-20.544,31.412-43.952,31.412v9.467c0,0-3.587-0.391-7.051,3.073c-3.356,3.354-2.704-37.934-2.593-43.952
			c0,0,1.341-46.45,53.238-46.45h1.166c51.9,0,53.236,46.45,53.236,46.45s2.227,45.556-1.236,42.09
			c-3.466-3.463-7.263-3.308-7.263-3.308v-7.301C273.034,181.882,250.893,150.401,250.893,150.401L250.893,150.401z"/>
		<path style="fill:#FFFFFF;stroke:#636363;stroke-width:3;stroke-linecap:round;stroke-linejoin:round;stroke-miterlimit:10;" d="
			M306.182,157.292c-13.775-7.734-33.48-16.152-53.99-16.152c-19.066,0-42.063,4.796-53.83,16.565l-8.02-33.527
			c0,0,26.192-30.926,60.311-30.926c36.788,0,61.372,30.16,61.372,30.16L306.182,157.292z"/>
		<path style="fill:#B1E3E0;stroke:#636363;stroke-width:3;stroke-linecap:round;stroke-linejoin:round;stroke-miterlimit:10;" d="
			M252.237,340.148l51.756-71.956c-1.561-0.173-3.137-0.288-4.739-0.288h-8.599h-2.857H275.58l0.119,0.119l-5.722,25.668h-35.999
			l-6.988-25.668c0,0-26.056,0.262-26.579,0.311L252.237,340.148z"/>
		<path style="fill:#FFFFFF;stroke:#636363;stroke-width:3;stroke-linecap:round;stroke-linejoin:round;stroke-miterlimit:10;" d="
			M303.993,268.192l-51.756,71.956l-0.405-0.321l0.254,0.352h6.254h81.69v-32.814C340.029,287.127,324.274,270.467,303.993,268.192z
			 M304.323,299.222l-51.826,40.927l51.826-71.814V299.222z"/>
		<path style="fill:#FFFFFF;stroke:#636363;stroke-width:3;stroke-linecap:round;stroke-linejoin:round;stroke-miterlimit:10;" d="
			M200.412,299.222v-30.888c-20.503,2.076-36.49,18.848-36.49,39.244v32.601h81.251h6.912l-0.254-0.352L200.412,299.222z"/>
		
			<polygon style="fill:#FFFFFF;stroke:#636363;stroke-width:3;stroke-linecap:round;stroke-linejoin:round;stroke-miterlimit:10;" points="
			251.832,339.827 251.784,339.763 252.237,340.148 200.412,268.334 200.412,299.222 		"/>
		
			<polygon style="fill:#FFFFFF;stroke:#636363;stroke-width:3;stroke-linecap:round;stroke-linejoin:round;stroke-miterlimit:10;" points="
			304.323,299.222 304.323,268.334 252.497,340.148 		"/>
		<path style="fill:none;stroke:#636363;stroke-width:3;stroke-linecap:round;stroke-linejoin:round;stroke-miterlimit:10;" d="
			M265.559,150.937c0,0,21.47,29.273,47.977,23.705"/>
	</g>
	
		<polygon style="fill:#EA9B9B;stroke:#636363;stroke-width:3;stroke-linecap:round;stroke-linejoin:round;stroke-miterlimit:10;" points="
		263.169,112.938 255.602,112.938 255.602,105.369 246.611,105.369 246.611,112.938 239.044,112.938 239.044,121.927 
		246.611,121.927 246.611,129.496 255.602,129.496 255.602,121.927 263.169,121.927 	"/>
</g>
<g>
	<path style="fill:#636363;" d="M210.419,401.822l-16.623-22.369c0.023,0.514,0.046,1.039,0.07,1.577
		c0.012,0.466,0.02,0.969,0.026,1.507c0.006,0.537,0.009,1.044,0.009,1.522v17.763h-2.365v-25.469h2.96l16.763,22.507
		c-0.012-0.501-0.036-1.021-0.069-1.558c-0.036-0.468-0.056-0.995-0.062-1.585c-0.006-0.591-0.009-1.189-0.009-1.796v-17.568h2.382
		v25.469H210.419z"/>
	<path style="fill:#636363;" d="M230.107,402.19c-1.378,0-2.668-0.188-3.872-0.563c-1.202-0.372-2.245-0.945-3.127-1.715
		c-0.88-0.772-1.579-1.752-2.092-2.944c-0.514-1.19-0.77-2.608-0.77-4.255v-16.36h2.609v16.113c0,1.32,0.19,2.456,0.57,3.408
		c0.378,0.951,0.901,1.73,1.566,2.339c0.666,0.607,1.443,1.06,2.33,1.356c0.888,0.298,1.84,0.448,2.855,0.448
		c0.993,0,1.951-0.155,2.873-0.466c0.923-0.309,1.743-0.779,2.461-1.41c0.719-0.63,1.296-1.437,1.733-2.416
		c0.439-0.982,0.658-2.145,0.658-3.485v-15.888h2.593v15.993c0,1.681-0.272,3.138-0.814,4.369c-0.544,1.232-1.283,2.252-2.217,3.057
		c-0.934,0.806-2.032,1.41-3.293,1.812C232.91,401.988,231.555,402.19,230.107,402.19z"/>
	<path style="fill:#636363;" d="M262.916,401.822l-6.936-10.912h-6.096v10.912h-2.593v-25.469h9.039c1.379,0,2.612,0.164,3.704,0.49
		c1.092,0.326,2.016,0.794,2.768,1.401c0.754,0.607,1.332,1.352,1.734,2.233c0.402,0.881,0.604,1.888,0.604,3.023
		c0,0.793-0.125,1.578-0.377,2.353c-0.25,0.777-0.64,1.49-1.164,2.139c-0.526,0.648-1.204,1.196-2.031,1.646
		c-0.831,0.448-1.822,0.762-2.979,0.937l7.409,11.246H262.916z M262.496,383.518c0-0.83-0.147-1.559-0.44-2.189
		c-0.291-0.631-0.718-1.163-1.277-1.596c-0.561-0.432-1.232-0.757-2.015-0.973c-0.783-0.216-1.67-0.324-2.663-0.324h-6.218v10.423
		h6.341c1.086,0,2.025-0.141,2.82-0.42c0.794-0.28,1.443-0.657,1.944-1.129c0.502-0.473,0.878-1.04,1.13-1.7
		C262.37,384.95,262.496,384.253,262.496,383.518z"/>
	<path style="fill:#636363;" d="M289.156,394.94c0,1.037-0.196,1.995-0.587,2.871c-0.391,0.876-0.984,1.638-1.778,2.285
		c-0.795,0.648-1.792,1.16-2.995,1.532c-1.202,0.374-2.616,0.563-4.239,0.563c-2.908,0-5.188-0.544-6.84-1.63
		c-1.652-1.086-2.695-2.634-3.127-4.642l2.54-0.56c0.175,0.69,0.433,1.32,0.772,1.892c0.338,0.571,0.804,1.072,1.401,1.499
		c0.594,0.426,1.325,0.755,2.188,0.988c0.863,0.234,1.893,0.351,3.084,0.351c0.991,0,1.916-0.098,2.776-0.289
		c0.856-0.193,1.599-0.491,2.224-0.892c0.625-0.403,1.116-0.928,1.471-1.568c0.357-0.643,0.535-1.407,0.535-2.294
		c0-0.947-0.228-1.721-0.683-2.322c-0.456-0.601-1.05-1.096-1.778-1.48c-0.729-0.385-1.552-0.7-2.461-0.946
		c-0.912-0.245-1.815-0.478-2.716-0.701c-0.653-0.161-1.308-0.335-1.961-0.518c-0.654-0.179-1.282-0.395-1.884-0.646
		c-0.602-0.252-1.161-0.537-1.682-0.858c-0.52-0.321-0.976-0.713-1.366-1.173c-0.391-0.462-0.698-1.002-0.919-1.621
		c-0.223-0.62-0.334-1.33-0.334-2.137c0-1.18,0.223-2.19,0.666-3.031c0.443-0.841,1.063-1.529,1.857-2.066
		c0.794-0.538,1.725-0.934,2.793-1.19c1.068-0.258,2.234-0.386,3.494-0.386c1.436,0,2.663,0.123,3.679,0.368
		c1.017,0.245,1.883,0.604,2.602,1.078c0.719,0.472,1.296,1.063,1.734,1.768c0.438,0.707,0.773,1.521,1.008,2.443l-2.575,0.544
		c-0.151-0.666-0.387-1.256-0.702-1.771c-0.314-0.513-0.731-0.945-1.251-1.295c-0.52-0.351-1.148-0.622-1.883-0.815
		c-0.735-0.192-1.618-0.289-2.645-0.289c-1.146,0-2.116,0.117-2.917,0.352c-0.801,0.232-1.44,0.554-1.919,0.964
		c-0.479,0.407-0.829,0.887-1.051,1.435c-0.223,0.547-0.332,1.137-0.332,1.768c0,0.818,0.185,1.496,0.551,2.033
		c0.368,0.538,0.864,0.985,1.488,1.349c0.626,0.361,1.352,0.666,2.182,0.91c0.829,0.246,1.705,0.479,2.628,0.701
		c0.712,0.187,1.424,0.374,2.137,0.561c0.712,0.188,1.401,0.406,2.066,0.656c0.666,0.251,1.284,0.548,1.857,0.884
		c0.572,0.341,1.07,0.754,1.497,1.246c0.427,0.489,0.765,1.066,1.017,1.724C289.029,393.243,289.156,394.027,289.156,394.94z"/>
	<path style="fill:#636363;" d="M294.935,401.822v-25.469h16.8v2.154h-14.207v9.161h13.104v2.101h-13.104v9.898h14.942v2.154
		H294.935z"/>
</g>
<g>
	<path style="fill:#C3ECFC;stroke:#90CEF4;stroke-width:3;stroke-linecap:round;stroke-linejoin:round;stroke-miterlimit:10;" d="
		M132.505,86.463c3.518,3.517,3.518,9.22-0.001,12.737l-10.283,10.283c-3.517,3.518-9.22,3.518-12.736,0l0,0
		c-3.519-3.517-3.519-9.22,0-12.737l10.282-10.283C123.284,82.946,128.987,82.946,132.505,86.463L132.505,86.463z"/>
	
		<line style="fill:#C3ECFC;stroke:#90CEF4;stroke-width:3;stroke-linecap:round;stroke-linejoin:round;stroke-miterlimit:10;" x1="114.625" y1="91.604" x2="127.363" y2="104.343"/>
</g>
<g>
	
		<rect x="278.429" y="48.959" style="fill:none;stroke:#575756;stroke-width:3;stroke-linecap:round;stroke-linejoin:round;stroke-miterlimit:10;" width="38.857" height="16.07"/>
	
		<line style="fill:none;stroke:#575756;stroke-width:3;stroke-linecap:round;stroke-linejoin:round;stroke-miterlimit:10;" x1="333.333" y1="56.994" x2="317.286" y2="56.994"/>
	
		<line style="fill:none;stroke:#575756;stroke-width:3;stroke-linecap:round;stroke-linejoin:round;stroke-miterlimit:10;" x1="310.701" y1="49.629" x2="310.701" y2="54.583"/>
	
		<line style="fill:none;stroke:#575756;stroke-width:3;stroke-linecap:round;stroke-linejoin:round;stroke-miterlimit:10;" x1="304.754" y1="49.629" x2="304.754" y2="54.583"/>
	
		<line style="fill:none;stroke:#575756;stroke-width:3;stroke-linecap:round;stroke-linejoin:round;stroke-miterlimit:10;" x1="298.805" y1="49.629" x2="298.805" y2="54.583"/>
	
		<line style="fill:none;stroke:#575756;stroke-width:3;stroke-linecap:round;stroke-linejoin:round;stroke-miterlimit:10;" x1="292.856" y1="49.629" x2="292.856" y2="54.583"/>
	
		<line style="fill:none;stroke:#575756;stroke-width:3;stroke-linecap:round;stroke-linejoin:round;stroke-miterlimit:10;" x1="278.429" y1="56.994" x2="269.189" y2="56.994"/>
	
		<line style="fill:none;stroke:#575756;stroke-width:3;stroke-linecap:round;stroke-linejoin:round;stroke-miterlimit:10;" x1="269.189" y1="50.967" x2="269.189" y2="63.02"/>
</g>
<g>
	<path style="fill:#EFB9B9;stroke:#EA9B9B;stroke-width:3;stroke-linecap:round;stroke-linejoin:round;stroke-miterlimit:10;" d="
		M372.617,171.849c0,0-16.637-6.018-15.822-16.56c1.19-15.365,15.822-5.988,15.822-5.988h-0.029c0,0,14.631-9.377,15.822,5.988
		c0.818,10.542-15.822,16.56-15.822,16.56H372.617z"/>
	
		<line style="fill:#EFB9B9;stroke:#EA9B9B;stroke-width:3;stroke-linecap:round;stroke-linejoin:round;stroke-miterlimit:10;" x1="367.77" y1="159.159" x2="377.369" y2="159.159"/>
	
		<line style="fill:#EFB9B9;stroke:#EA9B9B;stroke-width:3;stroke-linecap:round;stroke-linejoin:round;stroke-miterlimit:10;" x1="372.569" y1="154.358" x2="372.569" y2="163.958"/>
</g>
</svg>
